<?xml version="1.0" standalone="no"?>
<!DOCTYPE svg PUBLIC "-//W3C//DTD SVG 20010904//EN"
 "http://www.w3.org/TR/2001/REC-SVG-20010904/DTD/svg10.dtd">
<svg version="1.0" xmlns="http://www.w3.org/2000/svg"
 width="700.000000pt" height="700.000000pt" viewBox="0 0 700.000000 700.000000"
 preserveAspectRatio="xMidYMid meet">
<metadata>
Created by potrace 1.11, written by Peter Selinger 2001-2013
</metadata>
<g transform="translate(0.000000,700.000000) scale(0.100000,-0.100000)"
fill="#000000" stroke="none">
<path d="M3328 6155 c-2 -1 -37 -6 -78 -9 -41 -4 -77 -10 -80 -13 -3 -2 -5
-711 -5 -1574 l0 -1569 70 0 c38 0 695 -1 1459 -1 1061 0 1391 3 1397 12 4 7
11 37 15 68 4 31 8 58 9 61 1 3 5 41 9 85 5 44 10 94 12 110 4 42 4 343 0 380
-2 17 -7 59 -10 95 -6 56 -26 188 -40 255 -39 190 -123 430 -216 620 -71 143
-212 372 -287 464 -316 389 -675 658 -1108 831 -91 36 -271 96 -312 104 -16 3
-57 12 -92 21 -35 8 -78 18 -95 20 -17 2 -40 6 -51 9 -12 2 -48 7 -80 11 -33
4 -71 9 -85 12 -26 5 -427 12 -432 8z"/>
<path d="M1760 5512 c-340 -300 -592 -663 -745 -1070 -51 -138 -109 -346 -116
-414 0 -4 -4 -21 -9 -37 -4 -17 -11 -58 -15 -93 -4 -35 -9 -66 -10 -69 -8 -12
-18 -202 -18 -334 0 -142 6 -227 24 -345 5 -36 12 -84 15 -108 4 -23 11 -45
15 -48 7 -4 517 -6 889 -4 l35 0 0 1279 c0 704 -3 1282 -6 1285 -3 3 -29 -16
-59 -42z"/>
<path d="M1060 2464 c0 -16 134 -269 187 -354 55 -89 155 -230 185 -261 7 -8
36 -41 63 -74 95 -114 319 -325 327 -308 2 4 4 231 3 503 l0 495 -383 3 c-210
1 -382 -1 -382 -4z"/>
<path d="M3165 1681 c0 -434 3 -792 6 -795 17 -17 389 -28 522 -15 166 16 206
21 302 40 182 36 399 102 513 154 29 14 56 25 59 25 15 0 234 116 318 168 430
268 770 644 987 1092 28 58 52 108 55 113 2 4 -618 7 -1379 7 l-1383 0 0 -789z"/>
</g>
</svg>
