<?xml version="1.0" encoding="utf-8"?>
<!-- Generator: Adobe Illustrator 16.0.0, SVG Export Plug-In . SVG Version: 6.00 Build 0)  -->
<!DOCTYPE svg PUBLIC "-//W3C//DTD SVG 1.1//EN" "http://www.w3.org/Graphics/SVG/1.1/DTD/svg11.dtd">
<svg version="1.1" id="Layer_1" xmlns="http://www.w3.org/2000/svg" xmlns:xlink="http://www.w3.org/1999/xlink" x="0px" y="0px"
	 width="283.46px" height="283.46px" viewBox="0 0 283.46 283.46" enable-background="new 0 0 283.46 283.46" xml:space="preserve">
<g opacity="0.5">
	<path fill-rule="evenodd" clip-rule="evenodd" d="M36.307,162.453c-1.367-6.835-2.085-13.906-2.085-21.146
		c0-33.604,15.454-63.598,39.644-83.264v104.411H36.307V162.453z"/>
	<path fill-rule="evenodd" clip-rule="evenodd" d="M42.804,183.413h31.063c-0.002,0-0.002,41.157-0.002,41.157h-0.001
		c-13.428-10.918-24.166-25.02-31.061-41.155V183.413z"/>
	<path fill-rule="evenodd" clip-rule="evenodd" d="M240.146,183.413c-16.366,38.304-54.385,65.146-98.672,65.146
		c-4.51,0-8.955-0.278-13.319-0.819v-64.327C128.154,183.413,240.145,183.413,240.146,183.413z"/>
	<path fill-rule="evenodd" clip-rule="evenodd" d="M128.153,34.875c4.364-0.541,8.811-0.819,13.32-0.819
		c59.233,0,107.252,48.019,107.252,107.252c0,7.239-0.717,14.311-2.084,21.147c-0.002,0-118.487,0-118.487,0
		S128.154,34.875,128.153,34.875z"/>
</g>
</svg>
